<svg id="bg" xmlns="http://www.w3.org/2000/svg" viewBox="0 0 300 300"><defs><style>.cls-1{fill:#f3cf22;}</style></defs><g id="Presentacion"><path class="cls-1" d="M32.08,126.83c3,2.59,4.68,7.47,3,14.55,6.6-5.14,11.31-3.7,13-2.88a8.74,8.74,0,0,1,4,10.86c-1.34,3.79-5.05,7.23-11.69,8.24,5.85,4,5.88,8.38,5.63,10.06-.68,4.54-5.18,7.94-10,7.58-1.86-.13-6.61-1.14-9.37-7.59-2.76,6.45-7.51,7.46-9.36,7.59-4.86.36-9.37-3-10-7.58-.25-1.68-.23-6.11,5.62-10.06-6.64-1-10.35-4.45-11.68-8.24A8.72,8.72,0,0,1,5,138.5c1.67-.82,6.39-2.26,13,2.88-1.74-7.08,0-12,2.95-14.55a8.4,8.4,0,0,1,11.11,0ZM29.35,130a4.23,4.23,0,0,0-5.66,0c-3,2.58-3.87,9.5,2.83,20.71C33.22,139.46,32.33,132.54,29.35,130Zm-6.26,23.19c-7.2-10.36-13.19-12.42-16.22-10.92A4.58,4.58,0,0,0,5,148c1,3,4.77,5.76,11.94,5.76A36.18,36.18,0,0,0,23.09,153.15Zm25-5.17a4.59,4.59,0,0,0-1.9-5.75c-3-1.5-9,.56-16.23,10.92C41.22,155.14,46.76,151.72,48.08,148ZM16.85,171.11c3.46-.26,7.15-4.08,7.56-13.92-10.38,2.68-13.63,6.93-13.19,9.86a5.22,5.22,0,0,0,5.23,4.07Zm25-4.06c.44-2.93-2.81-7.18-13.19-9.86.42,9.84,4.1,13.66,7.56,13.92h.4A5.22,5.22,0,0,0,41.82,167.05Z"/><path class="cls-1" d="M279,126.83c3,2.59,4.69,7.47,3,14.55,6.6-5.14,11.32-3.7,13-2.88a8.72,8.72,0,0,1,4,10.86c-1.33,3.79-5,7.23-11.68,8.24,5.85,4,5.87,8.38,5.62,10.06-.67,4.54-5.18,7.94-10,7.58-1.85-.13-6.6-1.14-9.36-7.59-2.76,6.45-7.51,7.46-9.37,7.59-4.86.36-9.36-3-10-7.58-.25-1.68-.22-6.11,5.63-10.06-6.64-1-10.35-4.45-11.69-8.24a8.74,8.74,0,0,1,4-10.86c1.67-.82,6.38-2.26,13,2.88-1.73-7.08,0-12,2.95-14.55a8.4,8.4,0,0,1,11.11,0ZM276.31,130a4.23,4.23,0,0,0-5.66,0c-3,2.58-3.87,9.5,2.83,20.71C280.18,139.46,279.29,132.54,276.31,130Zm-6.26,23.19c-7.2-10.36-13.19-12.42-16.23-10.92a4.59,4.59,0,0,0-1.9,5.75c1.05,3,4.78,5.76,12,5.76A36.18,36.18,0,0,0,270.05,153.15ZM295,148a4.58,4.58,0,0,0-1.9-5.75c-3-1.5-9,.56-16.22,10.92C288.18,155.14,293.71,151.72,295,148Zm-31.22,23.13c3.46-.26,7.14-4.08,7.56-13.92-10.38,2.68-13.63,6.93-13.19,9.86a5.22,5.22,0,0,0,5.23,4.07Zm25-4.06c.44-2.93-2.82-7.18-13.19-9.86.41,9.84,4.1,13.66,7.56,13.92h.4A5.23,5.23,0,0,0,288.78,167.05Z"/><path class="cls-1" d="M155.55,126.83c3,2.59,4.69,7.47,3,14.55,6.6-5.14,11.31-3.7,13-2.88a8.74,8.74,0,0,1,4,10.86c-1.34,3.79-5.05,7.23-11.69,8.24,5.85,4,5.88,8.38,5.63,10.06-.68,4.54-5.18,7.94-10,7.58-1.85-.13-6.6-1.14-9.36-7.59-2.76,6.45-7.51,7.46-9.36,7.59-4.87.36-9.37-3-10-7.58-.25-1.68-.22-6.11,5.63-10.06-6.64-1-10.35-4.45-11.69-8.24a8.74,8.74,0,0,1,4-10.86c1.67-.82,6.38-2.26,13,2.88-1.73-7.08,0-12,3-14.55a8.38,8.38,0,0,1,11.1,0ZM152.83,130a4.23,4.23,0,0,0-5.66,0c-3,2.58-3.87,9.5,2.83,20.71C156.7,139.46,155.81,132.54,152.83,130Zm-6.26,23.19c-7.2-10.36-13.19-12.42-16.23-10.92a4.6,4.6,0,0,0-1.9,5.75c1.06,3,4.78,5.76,11.95,5.76A36.18,36.18,0,0,0,146.57,153.15Zm25-5.17a4.6,4.6,0,0,0-1.9-5.75c-3-1.5-9,.56-16.23,10.92C164.7,155.14,170.24,151.72,171.56,148Zm-31.23,23.13c3.46-.26,7.14-4.08,7.56-13.92-10.38,2.68-13.63,6.93-13.19,9.86a5.22,5.22,0,0,0,5.23,4.07Zm25-4.06c.44-2.93-2.81-7.18-13.19-9.86.42,9.84,4.1,13.66,7.56,13.92h.4A5.22,5.22,0,0,0,165.3,167.05Z"/><path class="cls-1" d="M93.82,126.83c3,2.59,4.68,7.47,3,14.55,6.6-5.14,11.31-3.7,13-2.88a8.74,8.74,0,0,1,4,10.86c-1.34,3.79-5,7.23-11.69,8.24,5.85,4,5.88,8.38,5.63,10.06-.68,4.54-5.18,7.94-10,7.58-1.86-.13-6.61-1.14-9.37-7.59-2.76,6.45-7.51,7.46-9.36,7.59-4.86.36-9.37-3-10.05-7.58-.24-1.68-.22-6.11,5.63-10.06-6.64-1-10.35-4.45-11.69-8.24a8.74,8.74,0,0,1,4-10.86c1.67-.82,6.39-2.26,13,2.88-1.73-7.08,0-12,3-14.55a8.4,8.4,0,0,1,11.11,0ZM91.09,130a4.23,4.23,0,0,0-5.66,0c-3,2.58-3.87,9.5,2.83,20.71C95,139.46,94.07,132.54,91.09,130Zm-6.26,23.19c-7.2-10.36-13.19-12.42-16.22-10.92a4.58,4.58,0,0,0-1.9,5.75c1.05,3,4.77,5.76,11.94,5.76A36.18,36.18,0,0,0,84.83,153.15Zm25-5.17a4.59,4.59,0,0,0-1.9-5.75c-3-1.5-9,.56-16.23,10.92C103,155.14,108.5,151.72,109.82,148ZM78.59,171.11c3.46-.26,7.14-4.08,7.56-13.92-10.38,2.68-13.63,6.93-13.19,9.86a5.22,5.22,0,0,0,5.23,4.07Zm25-4.06c.44-2.93-2.81-7.18-13.19-9.86.42,9.84,4.1,13.66,7.56,13.92h.4A5.22,5.22,0,0,0,103.56,167.05Z"/><path class="cls-1" d="M217.29,126.83c3,2.59,4.69,7.47,3,14.55,6.6-5.14,11.31-3.7,13-2.88a8.74,8.74,0,0,1,4,10.86c-1.34,3.79-5.05,7.23-11.69,8.24,5.85,4,5.87,8.38,5.63,10.06-.68,4.54-5.18,7.94-10.05,7.58-1.85-.13-6.6-1.14-9.36-7.59-2.76,6.45-7.51,7.46-9.37,7.59-4.86.36-9.36-3-10-7.58-.25-1.68-.22-6.11,5.63-10.06-6.64-1-10.35-4.45-11.69-8.24a8.74,8.74,0,0,1,4-10.86c1.67-.82,6.38-2.26,13,2.88-1.73-7.08,0-12,3-14.55a8.4,8.4,0,0,1,11.11,0ZM214.57,130a4.23,4.23,0,0,0-5.66,0c-3,2.58-3.87,9.5,2.83,20.71C218.44,139.46,217.55,132.54,214.57,130Zm-6.26,23.19c-7.2-10.36-13.19-12.42-16.23-10.92a4.59,4.59,0,0,0-1.9,5.75c1,3,4.78,5.76,11.95,5.76A36.18,36.18,0,0,0,208.31,153.15Zm25-5.17a4.58,4.58,0,0,0-1.9-5.75c-3-1.5-9,.56-16.22,10.92C226.44,155.14,232,151.72,233.29,148Zm-31.22,23.13c3.46-.26,7.14-4.08,7.56-13.92-10.38,2.68-13.63,6.93-13.19,9.86a5.22,5.22,0,0,0,5.23,4.07Zm25-4.06c.44-2.93-2.81-7.18-13.19-9.86.42,9.84,4.1,13.66,7.56,13.92h.4A5.22,5.22,0,0,0,227,167.05Z"/></g></svg>