<svg id="Capa_1" data-name="Capa 1" xmlns="http://www.w3.org/2000/svg" viewBox="0 0 1080 1080"><path d="M704.05,1056.17c-64,0-130.07-9.1-194.91-27-104.91-29-203.82-81.1-286-150.64C50,732.17-12.32,496.76,2.64,328.37,13.81,202.71,64.08,108,144.2,61.61c74.06-42.86,179.87-50,257.33-17.48,60.74,25.54,101.37,72.45,117.52,135.65,20.75,81.27,1.32,193-90.39,246.17-101.14,58.68-208.94-1.55-213.48-4.14a42,42,0,0,1,41.6-73c1.17.65,70.76,38.68,129.72,4.47,57.62-33.43,62.16-109.65,51.16-152.73-9.51-37.26-32.63-63.84-68.69-79-60.45-25.42-139.25-12.4-182.7,12.75-55,31.81-91.41,105.26-100,201.5-13,146.77,41,351.67,191,478.55C443.94,955.25,646.26,985.62,780,967c90.64-12.58,161-47.12,193.14-94.75,36.27-53.83,27.79-174-30.59-223.21-29.07-24.5-74.55-33-115.89-21.62-33.34,9.16-57.85,29.9-67.23,56.9-14.68,42.25-13,103.73,18.67,139.46a42,42,0,0,1-62.89,55.69c-55.81-63-57.85-157.27-35.12-222.72,18.59-53.51,63.9-93.73,124.31-110.33,68.26-18.74,141.92-4,192.27,38.38,87.39,73.63,110.24,239.26,46.13,334.39-46.09,68.39-135.32,114.92-251.25,131A636.72,636.72,0,0,1,704.05,1056.17Z"/></svg>