<svg id="Capa_1" data-name="Capa 1" xmlns="http://www.w3.org/2000/svg" viewBox="0 0 1080 1080"><path d="M838.7,175.53a243.39,243.39,0,0,0,2.63-36.37C841.33,58.83,805.17.5,755.34.5s-86,58.33-86,138.66H410.66C410.66,58.83,374.5.5,324.66.5s-86,58.33-86,138.66a243.39,243.39,0,0,0,2.63,36.37c-101.85,53.39-171.51,160.22-171.51,283V760.11c0,176.11,143.27,319.39,319.39,319.39H690.78c176.12,0,319.39-143.28,319.39-319.39V458.55C1010.17,335.79,940.56,229,838.7,175.53ZM755.34,78.45c5.74,9.74,13.18,30.13,13.18,60.71,0,3.28-.08,6.47-.24,9.51q-12.81-3.22-26-5.34c0-1.38,0-2.75,0-4.17C742.19,108.58,749.63,88.19,755.34,78.45Zm-430.68,0c5.75,9.74,13.19,30.13,13.19,60.71,0,1.42,0,2.79,0,4.17q-13.23,2.11-26.05,5.34c-.16-3-.24-6.23-.24-9.51C311.52,108.58,319,88.19,324.66,78.45ZM266.94,244.53A244.78,244.78,0,0,1,389.22,212H690.78A245.2,245.2,0,0,1,813.1,244.49,247.94,247.94,0,0,1,925.47,382.91H154.57A247.53,247.53,0,0,1,266.94,244.53ZM937.36,760.11c0,135.95-110.59,246.58-246.58,246.58H389.22c-136,0-246.58-110.63-246.58-246.58V458.55c0-.93,0-1.9,0-2.83H937.32c0,.93,0,1.9,0,2.83Z"/><polygon points="597.86 536.3 597.86 926.11 518.58 926.11 518.58 607.45 516.48 607.45 426.76 669.46 426.76 596.97 515.18 536.3 597.86 536.3"/></svg>