<svg id="Capa_1" data-name="Capa 1" xmlns="http://www.w3.org/2000/svg" viewBox="0 0 1080 1080"><path d="M1055,327.81,1050,343c-5.41,16.41-14.19,29-26.09,37.43-9.71,6.87-17.8,8.21-23.7,9.18-4.64.77-7.43,1.22-11.2,4-5.53,4.12-7,8.81-9.47,17.43-2.75,9.77-6.17,22-19,33.58-2.73,2.47-6.8,4.64-30.85,16.88-36.11,18.42-42.65,20.72-48.46,22.15a64.29,64.29,0,0,1-18.91,2,151.85,151.85,0,0,0-22.46,1.15,203.31,203.31,0,0,0-25.25,4.29,115.84,115.84,0,0,1-14,2.49c-2.22.23-4.66.39-7.37.45-17.48.38-35.4-3.65-53.26-12l-11.92-5.56,6.75-11.28a307.72,307.72,0,0,0,39.37-214.54l-.62-3.46L775,244a55.69,55.69,0,0,1,27.38-28.47c20.2-9.36,38.94-2.91,44.2-.71l3.61,1.51,2,3.35c1.73,2.89,3.53,5.76,5.37,8.55l.08.11A218.11,218.11,0,0,0,909,283.09c49.16,36.9,102.62,43.62,130.11,44.32ZM798.23,250.28c.06.33.11.63.15,1a22.9,22.9,0,0,0,24.7,3c6.71-3.34,10.74-10.17,11.1-18.45a1.23,1.23,0,0,0-.14-.25A31.74,31.74,0,0,0,812.31,237,31.28,31.28,0,0,0,798.23,250.28Zm222.41,99.78c-35.66-3.34-82-15-125.94-48A240.22,240.22,0,0,1,851,259.6a42.71,42.71,0,0,1-17.36,15.89,45.93,45.93,0,0,1-31.81,3.38,330.8,330.8,0,0,1-39.77,186.52,90.06,90.06,0,0,0,30.7,4.93c6.68-.14,10.64-1,16.68-2.37a229.65,229.65,0,0,1,27.78-4.71,175.3,175.3,0,0,1,25.45-1.3,40.37,40.37,0,0,0,12.92-1.34c2.77-.67,7-1.7,43.32-20.24,12.57-6.41,23.49-12,26-13.62,7.51-6.95,9.47-14,11.76-22.12,2.61-9.31,5.87-20.87,18.11-30,8.38-6.27,15.67-7.48,21.56-8.43,5-.82,8.58-1.41,13.82-5.12A41.38,41.38,0,0,0,1020.64,350.06Z"/><path d="M672.93,620.56a43,43,0,0,1-10.67-1.34c-11.45-2.93-17.74-9.72-22.78-15.17-4.32-4.67-7.73-8.35-14.58-10.38-8.81-2.6-15.36,0-23.65,3.18-9.47,3.69-21.25,8.29-36.06,3.36-15.31-5.09-21.84-16.36-27.1-25.41-3.86-6.67-7.2-12.43-13.69-16-17-9.51-45.3,2-66,13.37L447,551.32c38.3-21,67.41-25.32,89-13.27,12.17,6.8,18,16.81,22.64,24.85,4.78,8.25,7.58,12.65,14.07,14.81s11.23.45,20-3c10-3.89,22.4-8.74,39-3.83,13.1,3.88,19.84,11.16,25.25,17,4.44,4.8,6.78,7.16,11.26,8.31,11.69,3,28.52-6,48.64-26l16.71,16.82C710.91,609.51,691,620.56,672.93,620.56Z"/><path d="M657.68,670.45A42.86,42.86,0,0,1,647,669.11c-11.46-2.93-17.74-9.71-22.79-15.17-4.32-4.66-7.73-8.35-14.57-10.37-8.82-2.61-15.37-.06-23.65,3.17-9.47,3.7-21.26,8.29-36.07,3.37-15.31-5.1-21.84-16.37-27.09-25.42-3.87-6.67-7.21-12.42-13.69-16.05-17-9.51-45.3,2-66,13.37l-11.39-20.8c38.3-21,67.4-25.32,89-13.27,12.17,6.8,18,16.81,22.64,24.85,4.79,8.25,7.59,12.66,14.07,14.82s11.24.44,20-3c10-3.89,22.39-8.73,39-3.82,13.09,3.87,19.83,11.15,25.25,17,4.44,4.8,6.77,7.15,11.25,8.3,11.69,3,28.52-6,48.65-26L718.24,637C695.66,659.41,675.72,670.45,657.68,670.45Z"/><path d="M645.57,722.52a42.92,42.92,0,0,1-10.67-1.34c-11.46-2.93-17.74-9.72-22.79-15.17-4.31-4.67-7.72-8.35-14.57-10.38-8.82-2.6-15.36,0-23.65,3.18-9.47,3.7-21.26,8.29-36.07,3.36-15.3-5.09-21.84-16.36-27.09-25.41-3.87-6.67-7.21-12.43-13.69-16-17-9.51-45.3,2-66,13.37l-11.39-20.8c38.3-21,67.4-25.32,89-13.27,12.17,6.8,18,16.81,22.64,24.85,4.79,8.25,7.59,12.66,14.07,14.81s11.24.45,20-2.95c10-3.89,22.4-8.73,39-3.82,13.09,3.87,19.83,11.15,25.25,17,4.44,4.8,6.77,7.16,11.25,8.31,11.69,3,28.52-6,48.65-26L706.13,689C683.55,711.47,663.61,722.52,645.57,722.52Z"/><path d="M285.56,765.38c26.52-8,49-27.48,63.39-54.89,20.93-40,11.84-79.76,5.21-98.71,12.66-12.93,30-35.52,37.6-67.53a143.57,143.57,0,0,0,0-65.36l-.42-1.41c-2-5.51-21.36-54.22-73.63-67.34-28.74-7.21-53.41-.28-68.58,6.44-7.81-13.53-20.16-28.85-39.22-39.74-40.27-23-103.8-20.12-140.39,24.58C41.35,435.85,37.36,484,58.65,523.69,24.62,563.85,15.12,618,35.28,661c19.87,42.4,60.44,58.58,72.41,62.53A126.3,126.3,0,0,0,181,725.06a82,82,0,0,0,27.25,31.51,80.34,80.34,0,0,0,45.85,13.73A108.86,108.86,0,0,0,285.56,765.38Zm-102.05-66c-12.8,4.83-38.7,11.46-68.39,1.65-6.89-2.27-42.11-15.38-58.37-50.07-17.18-36.66-7.1-83.9,25.08-117.55l6.44-6.74-5-7.86c-20.46-31.92-18.55-74,4.64-102.33h0c28.64-35,78.56-37.14,110.27-19,19,10.87,29.54,27.73,35,40l5.45,12.15,11.44-6.81c8.91-5.32,32.79-16.88,61.88-9.59,38.88,9.76,54.34,45.29,56.9,51.88a119.76,119.76,0,0,1-.17,53.77c-7.38,31.17-26,51.7-36.39,61.15l-6.27,5.7,3.36,7.78c3.29,7.63,18.69,47.63-1.44,86.07-11.54,22-28.56,37-49.22,43.19-27.91,8.4-46.47,1.52-57.12-5.72-13.1-8.91-19.59-21.47-22.72-30.43l-4-11.47Z"/><path d="M198.89,715.54l-22.4-7.78A1070.28,1070.28,0,0,0,214.81,567a1070.08,1070.08,0,0,0,18.56-141.31L257,427.24a1094.13,1094.13,0,0,1-19,144.46A1093.12,1093.12,0,0,1,198.89,715.54Z"/><path d="M333.29,616.66a649.49,649.49,0,0,0-114.75-49.94A648.53,648.53,0,0,0,67.52,537l1.79-23.65a671.9,671.9,0,0,1,156.55,30.82,672.07,672.07,0,0,1,119,51.77Z"/><path d="M230.07,552.42c-3.6-5.32,9.81-28.68,27.25-27.25,6.89.57,15.73,5.12,15.74,10.29C273.07,546.26,234.64,559.17,230.07,552.42Z"/><path d="M226.44,562.71c2.47,5-9.75,21.89-26,21.19-8.91-.38-19.18-6-18.77-10.9C182.43,563.68,222.81,555.41,226.44,562.71Z"/><path d="M583.74,924.39a79.06,79.06,0,1,1,79.06-79.06A79.15,79.15,0,0,1,583.74,924.39Zm0-134.41a55.35,55.35,0,1,0,55.35,55.35A55.41,55.41,0,0,0,583.74,790Z"/><path d="M853.87,707.44a51.32,51.32,0,1,1,51.32-51.32A51.37,51.37,0,0,1,853.87,707.44Zm0-78.92a27.6,27.6,0,1,0,27.6,27.6A27.63,27.63,0,0,0,853.87,628.52Z"/><path d="M808.21,939.42a86.58,86.58,0,1,1,86.58-86.58A86.68,86.68,0,0,1,808.21,939.42Zm0-149.44a62.87,62.87,0,1,0,62.87,62.86A62.93,62.93,0,0,0,808.21,790Z"/><path d="M535.29,153.1c16.44,14.29,25.82,41.2,16.27,80.18,36.37-28.32,62.36-20.36,71.55-15.83,20.9,10.3,30.33,36,21.92,59.83-7.37,20.89-27.79,39.85-64.4,45.39,32.23,21.77,32.38,46.2,31,55.48-3.71,25-28.55,43.76-55.34,41.79-10.21-.76-36.39-6.3-51.61-41.84-15.22,35.54-41.4,41.08-51.61,41.84-26.79,2-51.63-16.77-55.34-41.79-1.38-9.28-1.23-33.71,31-55.48-36.6-5.54-57-24.5-64.4-45.39-8.41-23.81,1-49.53,21.92-59.83,9.19-4.52,35.18-12.48,71.55,15.83-9.55-39-.17-65.89,16.27-80.18a46.28,46.28,0,0,1,61.22,0Zm-15,17.25a23.33,23.33,0,0,0-31.22,0c-16.39,14.25-21.33,52.39,15.61,114.15C541.62,222.74,536.68,184.6,520.29,170.35Zm-34.5,127.81c-39.71-57.08-72.7-68.45-89.44-60.2-10.52,5.18-15,18.81-10.47,31.71,5.79,16.4,26.32,31.73,65.84,31.73A196,196,0,0,0,485.79,298.16Zm137.69-28.49c4.55-12.9,0-26.53-10.47-31.71-16.74-8.25-49.73,3.12-89.44,60.2C585.7,309.16,616.21,290.27,623.48,269.67ZM451.39,397.14c19.07-1.41,39.37-22.49,41.65-76.73-57.18,14.81-75.1,38.21-72.7,54.38,1.86,12.56,14.8,22.43,28.85,22.43C449.92,397.22,450.65,397.19,451.39,397.14ZM589,374.8c2.4-16.18-15.53-39.58-72.7-54.39,2.28,54.24,22.59,75.32,41.65,76.73.74.05,1.47.08,2.2.08C574.21,397.22,587.16,387.35,589,374.8Z"/></svg>