<svg id="Capa_1" data-name="Capa 1" xmlns="http://www.w3.org/2000/svg" viewBox="0 0 1080 1080"><path d="M540,.5C242,.5.5,242,.5,540S242,1079.5,540,1079.5,1079.5,838,1079.5,540,838,.5,540,.5ZM858,858a49,49,0,0,1-69.36,0l-83.45-83.45c-131.62,97.93-319.09,87.2-438.45-32.16-131.12-131.12-131.12-344.47,0-475.62s344.47-131.12,475.59,0c119.36,119.36,130.1,306.83,32.19,438.42L858,788.62A49.07,49.07,0,0,1,858,858Z"/><path d="M336.13,336.11c-92.89,92.89-92.92,244,0,336.9s244,92.89,336.93,0,92.86-244,0-336.9S429,243.22,336.13,336.11Z"/></svg>