<svg id="Capa_1" data-name="Capa 1" xmlns="http://www.w3.org/2000/svg" xmlns:xlink="http://www.w3.org/1999/xlink" viewBox="0 0 1080 1080"><defs><style>.cls-1{fill:none;}.cls-2{fill:url(#Motivo_nuevo_2);}</style><pattern id="Motivo_nuevo_2" data-name="Motivo nuevo 2" width="255" height="255.16" patternUnits="userSpaceOnUse" viewBox="0 0 255 255.16"><rect class="cls-1" width="255" height="255.16"/><path d="M285.45,270.94V239.6a30.45,30.45,0,0,0-60.9,0v31.34a30.45,30.45,0,0,0,60.9,0Zm-7.59-31.34v31.34a22.86,22.86,0,0,1-45.72,0V239.6a22.86,22.86,0,0,1,45.72,0Z"/><rect x="230.61" y="251.47" width="47.81" height="7.59"/><path d="M269.21,287.17v-63.8a14.21,14.21,0,1,0-28.42,0v63.8a14.21,14.21,0,1,0,28.42,0Zm-7.59-63.8v63.8a6.62,6.62,0,1,1-13.24,0v-63.8a6.62,6.62,0,1,1,13.24,0Z"/><path d="M269,198.31a14.48,14.48,0,1,0-14.47,14.48A14.49,14.49,0,0,0,269,198.31Zm-7.59,0a6.89,6.89,0,1,1-6.88-6.88A6.89,6.89,0,0,1,261.4,198.31Z"/><path d="M255.39,181.66c.8-2.18,1.33-2.71,3.51-3.51l2.62-1-2.62-1c-2.18-.79-2.71-1.32-3.51-3.5l-1-2.62-1,2.62c-.8,2.18-1.33,2.71-3.51,3.5l-2.62,1,2.62,1c2.18.8,2.71,1.33,3.51,3.51l1,2.62Zm-1-6.16a5.09,5.09,0,0,0,1.7,1.69,5.12,5.12,0,0,0-1.7,1.7,5.09,5.09,0,0,0-1.69-1.7A5.06,5.06,0,0,0,254.43,175.5Z"/><path d="M200.45,270.94V239.6a30.45,30.45,0,0,0-60.9,0v31.34a30.45,30.45,0,0,0,60.9,0Zm-7.59-31.34v31.34a22.86,22.86,0,0,1-45.72,0V239.6a22.86,22.86,0,0,1,45.72,0Z"/><rect x="145.61" y="251.47" width="47.81" height="7.59"/><path d="M184.21,287.17v-63.8a14.21,14.21,0,1,0-28.42,0v63.8a14.21,14.21,0,0,0,28.42,0Zm-7.59-63.8v63.8a6.62,6.62,0,0,1-13.24,0v-63.8a6.62,6.62,0,1,1,13.24,0Z"/><path d="M184,198.31a14.48,14.48,0,1,0-14.47,14.48A14.49,14.49,0,0,0,184,198.31Zm-7.59,0a6.89,6.89,0,1,1-6.88-6.88A6.89,6.89,0,0,1,176.4,198.31Z"/><path d="M170.39,181.66c.8-2.18,1.33-2.71,3.51-3.51l2.62-1-2.62-1c-2.18-.79-2.71-1.32-3.51-3.5l-1-2.62-1,2.62c-.8,2.18-1.33,2.71-3.51,3.5l-2.62,1,2.62,1c2.18.8,2.71,1.33,3.51,3.51l1,2.62Zm-1-6.16a5.09,5.09,0,0,0,1.7,1.69,5.12,5.12,0,0,0-1.7,1.7,5.09,5.09,0,0,0-1.69-1.7A5.06,5.06,0,0,0,169.43,175.5Z"/><path d="M115.45,270.94V239.6a30.45,30.45,0,0,0-60.9,0v31.34a30.45,30.45,0,0,0,60.9,0Zm-7.59-31.34v31.34a22.86,22.86,0,0,1-45.72,0V239.6a22.86,22.86,0,0,1,45.72,0Z"/><rect x="60.61" y="251.47" width="47.81" height="7.59"/><path d="M99.21,287.17v-63.8a14.21,14.21,0,1,0-28.42,0v63.8a14.21,14.21,0,0,0,28.42,0Zm-7.59-63.8v63.8a6.62,6.62,0,0,1-13.24,0v-63.8a6.62,6.62,0,1,1,13.24,0Z"/><path d="M99,198.31a14.48,14.48,0,1,0-14.47,14.48A14.49,14.49,0,0,0,99,198.31Zm-7.59,0a6.89,6.89,0,1,1-6.88-6.88A6.89,6.89,0,0,1,91.4,198.31Z"/><path d="M85.39,181.66c.8-2.18,1.33-2.71,3.51-3.51l2.62-1-2.62-1c-2.18-.79-2.71-1.32-3.51-3.5l-1-2.62-1,2.62c-.8,2.18-1.33,2.71-3.51,3.5l-2.62,1,2.62,1c2.18.8,2.71,1.33,3.51,3.51l1,2.62Zm-1-6.16a5.09,5.09,0,0,0,1.7,1.69,5.12,5.12,0,0,0-1.7,1.7,5.09,5.09,0,0,0-1.69-1.7A5.06,5.06,0,0,0,84.43,175.5Z"/><path d="M30.45,270.94V239.6A30.48,30.48,0,0,0,0,209.15,30.48,30.48,0,0,0-30.45,239.6v31.34A30.48,30.48,0,0,0,0,301.38,30.48,30.48,0,0,0,30.45,270.94ZM22.86,239.6v31.34A22.88,22.88,0,0,1,0,293.79a22.88,22.88,0,0,1-22.86-22.85V239.6A22.89,22.89,0,0,1,0,216.74,22.89,22.89,0,0,1,22.86,239.6Z"/><rect x="-24.39" y="251.47" width="47.81" height="7.59"/><path d="M14.21,287.17v-63.8A14.23,14.23,0,0,0,0,209.15a14.23,14.23,0,0,0-14.21,14.22v63.8A14.22,14.22,0,0,0,0,301.38,14.22,14.22,0,0,0,14.21,287.17Zm-7.59-63.8v63.8A6.63,6.63,0,0,1,0,293.79a6.63,6.63,0,0,1-6.62-6.62v-63.8A6.64,6.64,0,0,1,0,216.74,6.64,6.64,0,0,1,6.62,223.37Z"/><path d="M14,198.31A14.49,14.49,0,0,0-.48,183.83,14.5,14.5,0,0,0-15,198.31,14.5,14.5,0,0,0-.48,212.79,14.49,14.49,0,0,0,14,198.31Zm-7.59,0A6.89,6.89,0,0,1-.48,205.2a6.9,6.9,0,0,1-6.89-6.89,6.89,6.89,0,0,1,6.89-6.88A6.89,6.89,0,0,1,6.4,198.31Z"/><path d="M.39,181.66c.8-2.18,1.33-2.71,3.51-3.51l2.62-1-2.62-1c-2.18-.79-2.71-1.32-3.51-3.5l-1-2.62-.95,2.62c-.8,2.18-1.33,2.71-3.51,3.5l-2.62,1,2.62,1c2.18.8,2.71,1.33,3.51,3.51l1,2.62Zm-1-6.16a5.09,5.09,0,0,0,1.7,1.69,5.12,5.12,0,0,0-1.7,1.7,5.09,5.09,0,0,0-1.69-1.7A5.06,5.06,0,0,0-.57,175.5Z"/><path d="M243,143.35V112a30.45,30.45,0,1,0-60.9,0v31.33a30.45,30.45,0,0,0,60.9,0ZM235.36,112v31.33a22.86,22.86,0,1,1-45.72,0V112a22.86,22.86,0,0,1,45.72,0Z"/><rect x="188.11" y="123.89" width="47.81" height="7.59"/><path d="M226.71,159.59V95.78a14.21,14.21,0,0,0-28.42,0v63.81a14.21,14.21,0,0,0,28.42,0Zm-7.59-63.81v63.81a6.62,6.62,0,1,1-13.24,0V95.78a6.62,6.62,0,1,1,13.24,0Z"/><path d="M226.49,70.73A14.48,14.48,0,1,0,212,85.21,14.49,14.49,0,0,0,226.49,70.73Zm-7.59,0A6.89,6.89,0,1,1,212,63.84,6.89,6.89,0,0,1,218.9,70.73Z"/><path d="M227,184.64a14.48,14.48,0,1,0-14.48,14.48A14.49,14.49,0,0,0,227,184.64Zm-7.6,0a6.88,6.88,0,1,1-6.88-6.88A6.89,6.89,0,0,1,219.38,184.64Z"/><path d="M212.89,54.08c.8-2.19,1.33-2.71,3.51-3.51l2.62-1-2.62-1c-2.18-.8-2.71-1.32-3.51-3.5l-1-2.62-1,2.62c-.8,2.18-1.33,2.7-3.51,3.5l-2.62,1,2.62,1c2.18.8,2.71,1.32,3.51,3.51l1,2.62Zm-1-6.16a5.18,5.18,0,0,0,1.7,1.69,5.12,5.12,0,0,0-1.7,1.7,5.09,5.09,0,0,0-1.69-1.7A5.15,5.15,0,0,0,211.93,47.92Z"/><path d="M213.46,210c.8-2.19,1.32-2.71,3.5-3.51l2.62-1-2.62-1c-2.18-.8-2.7-1.32-3.5-3.5l-1-2.62-1,2.62c-.8,2.18-1.32,2.7-3.5,3.5l-2.62,1,2.62,1c2.18.8,2.7,1.32,3.5,3.51l1,2.62Zm-1-6.16a5.18,5.18,0,0,0,1.7,1.69,5.12,5.12,0,0,0-1.7,1.7,5.12,5.12,0,0,0-1.7-1.7A5.18,5.18,0,0,0,212.5,203.86Z"/><path d="M158,143.35V112a30.45,30.45,0,1,0-60.9,0v31.33a30.45,30.45,0,1,0,60.9,0ZM150.36,112v31.33a22.86,22.86,0,0,1-45.72,0V112a22.86,22.86,0,0,1,45.72,0Z"/><rect x="103.11" y="123.89" width="47.81" height="7.59"/><path d="M141.71,159.59V95.78a14.21,14.21,0,0,0-28.42,0v63.81a14.21,14.21,0,0,0,28.42,0Zm-7.59-63.81v63.81a6.62,6.62,0,1,1-13.24,0V95.78a6.62,6.62,0,0,1,13.24,0Z"/><path d="M141.49,70.73A14.48,14.48,0,1,0,127,85.21,14.49,14.49,0,0,0,141.49,70.73Zm-7.59,0A6.89,6.89,0,1,1,127,63.84,6.89,6.89,0,0,1,133.9,70.73Z"/><path d="M142,184.64a14.48,14.48,0,1,0-14.48,14.48A14.49,14.49,0,0,0,142,184.64Zm-7.6,0a6.88,6.88,0,1,1-6.88-6.88A6.89,6.89,0,0,1,134.38,184.64Z"/><path d="M127.89,54.08c.8-2.19,1.33-2.71,3.51-3.51l2.62-1-2.62-1c-2.18-.8-2.71-1.32-3.51-3.5l-1-2.62-1,2.62c-.8,2.18-1.33,2.7-3.51,3.5l-2.62,1,2.62,1c2.18.8,2.71,1.32,3.51,3.51l1,2.62Zm-1-6.16a5.18,5.18,0,0,0,1.7,1.69,5.12,5.12,0,0,0-1.7,1.7,5.09,5.09,0,0,0-1.69-1.7A5.15,5.15,0,0,0,126.93,47.92Z"/><path d="M128.46,210c.8-2.19,1.32-2.71,3.5-3.51l2.62-1-2.62-1c-2.18-.8-2.7-1.32-3.5-3.5l-1-2.62-1,2.62c-.8,2.18-1.32,2.7-3.5,3.5l-2.62,1,2.62,1c2.18.8,2.7,1.32,3.5,3.51l1,2.62Zm-1-6.16a5.18,5.18,0,0,0,1.7,1.69,5.12,5.12,0,0,0-1.7,1.7,5.12,5.12,0,0,0-1.7-1.7A5.18,5.18,0,0,0,127.5,203.86Z"/><path d="M73,143.35V112a30.45,30.45,0,1,0-60.9,0v31.33a30.45,30.45,0,0,0,60.9,0ZM65.36,112v31.33a22.86,22.86,0,0,1-45.72,0V112a22.86,22.86,0,0,1,45.72,0Z"/><rect x="18.11" y="123.89" width="47.81" height="7.59"/><path d="M56.71,159.59V95.78a14.21,14.21,0,0,0-28.42,0v63.81a14.21,14.21,0,0,0,28.42,0ZM49.12,95.78v63.81a6.62,6.62,0,1,1-13.24,0V95.78a6.62,6.62,0,0,1,13.24,0Z"/><path d="M56.49,70.73A14.48,14.48,0,1,0,42,85.21,14.49,14.49,0,0,0,56.49,70.73Zm-7.59,0A6.89,6.89,0,1,1,42,63.84,6.89,6.89,0,0,1,48.9,70.73Z"/><path d="M57,184.64A14.48,14.48,0,1,0,42.5,199.12,14.49,14.49,0,0,0,57,184.64Zm-7.6,0a6.88,6.88,0,1,1-6.88-6.88A6.89,6.89,0,0,1,49.38,184.64Z"/><path d="M42.89,54.08c.8-2.19,1.33-2.71,3.51-3.51l2.62-1-2.62-1c-2.18-.8-2.71-1.32-3.51-3.5l-1-2.62-1,2.62c-.8,2.18-1.33,2.7-3.51,3.5l-2.62,1,2.62,1c2.18.8,2.71,1.32,3.51,3.51l1,2.62Zm-1-6.16a5.18,5.18,0,0,0,1.7,1.69,5.12,5.12,0,0,0-1.7,1.7,5.09,5.09,0,0,0-1.69-1.7A5.15,5.15,0,0,0,41.93,47.92Z"/><path d="M43.46,210c.8-2.19,1.32-2.71,3.5-3.51l2.62-1-2.62-1c-2.18-.8-2.7-1.32-3.5-3.5l-1-2.62-1,2.62c-.8,2.18-1.32,2.7-3.5,3.5l-2.62,1,2.62,1c2.18.8,2.7,1.32,3.5,3.51l1,2.62Zm-1-6.16a5.18,5.18,0,0,0,1.7,1.69,5.12,5.12,0,0,0-1.7,1.7,5.12,5.12,0,0,0-1.7-1.7A5.18,5.18,0,0,0,42.5,203.86Z"/><path d="M285.45,15.77V-15.56A30.48,30.48,0,0,0,255-46a30.48,30.48,0,0,0-30.45,30.45V15.77a30.45,30.45,0,1,0,60.9,0Zm-7.59-31.33V15.77a22.86,22.86,0,0,1-45.72,0V-15.56A22.89,22.89,0,0,1,255-38.42,22.89,22.89,0,0,1,277.86-15.56Z"/><rect x="230.61" y="-3.69" width="47.81" height="7.59"/><path d="M269.21,32V-31.8A14.23,14.23,0,0,0,255-46,14.23,14.23,0,0,0,240.79-31.8V32a14.21,14.21,0,1,0,28.42,0Zm-7.59-63.8V32a6.62,6.62,0,1,1-13.24,0V-31.8A6.63,6.63,0,0,1,255-38.42,6.63,6.63,0,0,1,261.62-31.8Z"/><path d="M269.48,57.06A14.48,14.48,0,1,0,255,71.54,14.5,14.5,0,0,0,269.48,57.06Zm-7.6,0A6.88,6.88,0,1,1,255,50.17,6.88,6.88,0,0,1,261.88,57.06Z"/><path d="M256,82.43c.8-2.18,1.32-2.7,3.5-3.5l2.62-1-2.62-1c-2.18-.8-2.7-1.32-3.5-3.5l-1-2.62-1,2.62c-.8,2.18-1.32,2.7-3.5,3.5l-2.62,1,2.62,1c2.18.8,2.7,1.32,3.5,3.5l1,2.62Zm-1-6.15A5.18,5.18,0,0,0,256.7,78a5.12,5.12,0,0,0-1.7,1.7,5.12,5.12,0,0,0-1.7-1.7A5.18,5.18,0,0,0,255,76.28Z"/><path d="M200.45,15.77V-15.56A30.48,30.48,0,0,0,170-46a30.48,30.48,0,0,0-30.45,30.45V15.77a30.45,30.45,0,1,0,60.9,0Zm-7.59-31.33V15.77a22.86,22.86,0,0,1-45.72,0V-15.56A22.89,22.89,0,0,1,170-38.42,22.89,22.89,0,0,1,192.86-15.56Z"/><rect x="145.61" y="-3.69" width="47.81" height="7.59"/><path d="M184.21,32V-31.8A14.23,14.23,0,0,0,170-46,14.23,14.23,0,0,0,155.79-31.8V32a14.21,14.21,0,1,0,28.42,0Zm-7.59-63.8V32a6.62,6.62,0,1,1-13.24,0V-31.8A6.63,6.63,0,0,1,170-38.42,6.63,6.63,0,0,1,176.62-31.8Z"/><path d="M184.48,57.06A14.48,14.48,0,1,0,170,71.54,14.5,14.5,0,0,0,184.48,57.06Zm-7.6,0A6.88,6.88,0,1,1,170,50.17,6.88,6.88,0,0,1,176.88,57.06Z"/><path d="M171,82.43c.8-2.18,1.32-2.7,3.5-3.5l2.62-1-2.62-1c-2.18-.8-2.7-1.32-3.5-3.5l-1-2.62-1,2.62c-.8,2.18-1.32,2.7-3.5,3.5l-2.62,1,2.62,1c2.18.8,2.7,1.32,3.5,3.5l1,2.62Zm-1-6.15A5.18,5.18,0,0,0,171.7,78a5.12,5.12,0,0,0-1.7,1.7,5.12,5.12,0,0,0-1.7-1.7A5.18,5.18,0,0,0,170,76.28Z"/><path d="M115.45,15.77V-15.56A30.48,30.48,0,0,0,85-46,30.48,30.48,0,0,0,54.55-15.56V15.77a30.45,30.45,0,0,0,60.9,0Zm-7.59-31.33V15.77a22.86,22.86,0,0,1-45.72,0V-15.56A22.89,22.89,0,0,1,85-38.42,22.89,22.89,0,0,1,107.86-15.56Z"/><rect x="60.61" y="-3.69" width="47.81" height="7.59"/><path d="M99.21,32V-31.8A14.23,14.23,0,0,0,85-46,14.23,14.23,0,0,0,70.79-31.8V32a14.21,14.21,0,1,0,28.42,0ZM91.62-31.8V32a6.62,6.62,0,1,1-13.24,0V-31.8A6.63,6.63,0,0,1,85-38.42,6.63,6.63,0,0,1,91.62-31.8Z"/><path d="M99.48,57.06A14.48,14.48,0,1,0,85,71.54,14.5,14.5,0,0,0,99.48,57.06Zm-7.6,0A6.88,6.88,0,1,1,85,50.17,6.88,6.88,0,0,1,91.88,57.06Z"/><path d="M86,82.43c.8-2.18,1.32-2.7,3.5-3.5l2.62-1-2.62-1c-2.18-.8-2.7-1.32-3.5-3.5l-1-2.62-1,2.62c-.8,2.18-1.32,2.7-3.5,3.5l-2.62,1,2.62,1c2.18.8,2.7,1.32,3.5,3.5l1,2.62Zm-1-6.15A5.18,5.18,0,0,0,86.7,78a5.12,5.12,0,0,0-1.7,1.7A5.12,5.12,0,0,0,83.3,78,5.18,5.18,0,0,0,85,76.28Z"/><path d="M30.45,15.77V-15.56A30.48,30.48,0,0,0,0-46,30.48,30.48,0,0,0-30.45-15.56V15.77A30.48,30.48,0,0,0,0,46.22,30.48,30.48,0,0,0,30.45,15.77ZM22.86-15.56V15.77A22.89,22.89,0,0,1,0,38.63,22.89,22.89,0,0,1-22.86,15.77V-15.56A22.89,22.89,0,0,1,0-38.42,22.89,22.89,0,0,1,22.86-15.56Z"/><rect x="-24.39" y="-3.69" width="47.81" height="7.59"/><path d="M14.21,32V-31.8A14.23,14.23,0,0,0,0-46,14.23,14.23,0,0,0-14.21-31.8V32A14.23,14.23,0,0,0,0,46.22,14.23,14.23,0,0,0,14.21,32ZM6.62-31.8V32A6.63,6.63,0,0,1,0,38.63,6.63,6.63,0,0,1-6.62,32V-31.8A6.63,6.63,0,0,1,0-38.42,6.63,6.63,0,0,1,6.62-31.8Z"/><path d="M14.48,57.06A14.5,14.5,0,0,0,0,42.58a14.48,14.48,0,0,0,0,29A14.5,14.5,0,0,0,14.48,57.06Zm-7.6,0A6.88,6.88,0,0,1,0,63.94a6.88,6.88,0,0,1-6.88-6.88A6.89,6.89,0,0,1,0,50.17,6.89,6.89,0,0,1,6.88,57.06Z"/><path d="M1,82.43c.8-2.18,1.32-2.7,3.5-3.5l2.62-1L4.46,77c-2.18-.8-2.7-1.32-3.5-3.5L0,70.89l-1,2.62c-.8,2.18-1.32,2.7-3.5,3.5l-2.62,1,2.62,1c2.18.8,2.7,1.32,3.5,3.5l1,2.62ZM0,76.28A5.18,5.18,0,0,0,1.7,78,5.12,5.12,0,0,0,0,79.67,5.12,5.12,0,0,0-1.7,78,5.18,5.18,0,0,0,0,76.28Z"/></pattern></defs><rect class="cls-2" x="0.5" y="0.5" width="1079" height="1079"/></svg>