<svg id="Capa_1" data-name="Capa 1" xmlns="http://www.w3.org/2000/svg" viewBox="0 0 1080 1080"><path d="M930.46,658.51,550.57.5,137.32,716.29h172.5c117,0,211.87,94.83,211.87,211.86V1079.5h421V679.65Zm-351-492.41L863.74,658.51H791.32c-117,0-211.85-94.84-211.85-211.87ZM237.4,658.51,521.69,166.1V446.64c0,117-94.84,211.87-211.87,211.87Zm191.79,30.74c47.69,0,119.27-71.53,119.27-119.22,0,47.69,71.52,119.22,119.21,119.22-47.69,0-119.21,71.52-119.21,119.21C548.46,760.77,476.88,689.25,429.19,689.25ZM884.9,1021.72H579.47V928.15c0-117,94.82-211.86,211.85-211.86H884.9Z"/><path d="M290,831.85a94.93,94.93,0,1,1-94.93,94.93A95,95,0,0,1,290,831.85Zm0-57.78A152.71,152.71,0,1,0,442.76,926.78,152.71,152.71,0,0,0,290,774.07Z"/></svg>