<svg id="Capa_1" data-name="Capa 1" xmlns="http://www.w3.org/2000/svg" viewBox="0 0 1080 1080"><path d="M586.55,271.83A86.25,86.25,0,0,0,537.6,114.9l4.75-13c4.76-13,7.88-16.13,20.88-20.88l15.63-5.72L563.23,69.6c-13-4.76-16.12-7.88-20.88-20.88L536.63,33.1l-5.71,15.62C526.15,61.72,523,64.84,510,69.6L494.4,75.32,510,81c13,4.75,16.11,7.88,20.88,20.88l4.75,13A86.24,86.24,0,0,0,489.36,273c-75.49,22-130.81,91.77-130.81,174.26V634c0,83.22,56.32,153.54,132.83,174.83a86.25,86.25,0,0,0,47.2,157.49l-4.31,11.77c-4.75,13-7.88,16.12-20.88,20.88l-15.62,5.72,15.62,5.71c13,4.76,16.13,7.89,20.88,20.88L540,1046.9l5.71-15.63c4.77-13,7.89-16.12,20.89-20.88l15.63-5.71L566.6,999c-13-4.76-16.12-7.88-20.89-20.88l-4.31-11.77a86.24,86.24,0,0,0,47.21-157.49C665.13,787.53,721.45,717.21,721.45,634V447.24C721.45,363.27,664.13,292.44,586.55,271.83ZM403.79,634V563.23h51.5v167.5a84.23,84.23,0,0,0,.63,10.35A136,136,0,0,1,403.79,634Zm51.5-283.5V518h-51.5V447.24a136,136,0,0,1,52.13-107.09A84.06,84.06,0,0,0,455.29,350.49ZM500.54,518V350.49A39.51,39.51,0,0,1,539,311h2a39.5,39.5,0,0,1,38.45,39.45V518Zm78.92,45.24v167.5A39.51,39.51,0,0,1,541,770.19h-2a39.51,39.51,0,0,1-38.44-39.46V563.23ZM526.52,75.32a30.82,30.82,0,0,0,10.11-10.11,30.82,30.82,0,0,0,10.11,10.11,30.7,30.7,0,0,0-10.11,10.1A30.7,30.7,0,0,0,526.52,75.32Zm10.6,84.82a41,41,0,1,1-41.05,41A41.07,41.07,0,0,1,537.12,160.14Zm13,844.54a30.7,30.7,0,0,0-10.11,10.1,30.6,30.6,0,0,0-10.11-10.1A30.73,30.73,0,0,0,540,994.57,30.82,30.82,0,0,0,550.11,1004.68ZM540,921.09a41,41,0,1,1,41-41A41.09,41.09,0,0,1,540,921.09ZM676.2,634a136,136,0,0,1-52.13,107.09,82.3,82.3,0,0,0,.63-10.35V563.23h51.5Zm0-116H624.7V350.49a82.14,82.14,0,0,0-.63-10.34A136,136,0,0,1,676.2,447.24Z"/></svg>