<svg id="Capa_1" data-name="Capa 1" xmlns="http://www.w3.org/2000/svg" xmlns:xlink="http://www.w3.org/1999/xlink" viewBox="0 0 1080 1080"><defs><style>.cls-1{fill:none;}.cls-2{fill:url(#Motivo_nuevo);}</style><pattern id="Motivo_nuevo" data-name="Motivo nuevo" width="167" height="214.12" patternUnits="userSpaceOnUse" viewBox="0 0 167 214.12"><rect class="cls-1" width="167" height="214.12"/><path d="M174.52,196.15c2.81-2.44,4.41-7,2.78-13.7,6.21,4.84,10.65,3.48,12.22,2.71a8.21,8.21,0,0,0,3.74-10.22c-1.26-3.57-4.74-6.81-11-7.75,5.51-3.72,5.53-7.89,5.3-9.48-.64-4.27-4.88-7.47-9.45-7.14-1.75.13-6.22,1.08-8.82,7.15-2.6-6.07-7.07-7-8.82-7.15-4.57-.33-8.81,2.87-9.45,7.14-.23,1.59-.21,5.76,5.3,9.48-6.25.94-9.74,4.18-11,7.75a8.21,8.21,0,0,0,3.74,10.22c1.57.77,6,2.13,12.22-2.71-1.63,6.66,0,11.26,2.78,13.7a7.9,7.9,0,0,0,10.46,0Zm-2.56-3a4,4,0,0,1-5.34,0c-2.8-2.43-3.64-8.94,2.67-19.49C175.6,184.26,174.76,190.77,172,193.2Zm-5.9-21.83c-6.78,9.75-12.41,11.7-15.27,10.29a4.32,4.32,0,0,1-1.79-5.42c1-2.8,4.49-5.42,11.24-5.42A33.66,33.66,0,0,1,166.06,171.37Zm23.52,4.87a4.32,4.32,0,0,1-1.79,5.42c-2.86,1.41-8.49-.54-15.27-10.29C183.13,169.49,188.34,172.72,189.58,176.24Zm-29.39-21.77c3.25.24,6.72,3.84,7.11,13.1-9.76-2.53-12.83-6.52-12.42-9.29a4.93,4.93,0,0,1,4.93-3.83Zm23.51,3.81c.41,2.77-2.66,6.76-12.42,9.29.39-9.26,3.86-12.86,7.11-13.1l.38,0A4.93,4.93,0,0,1,183.7,158.28Z"/><path d="M188.91,225.17a6.87,6.87,0,0,1-5.51-2.72,4.92,4.92,0,0,0-2.4-1.71,5.54,5.54,0,0,0-3.9.52,8.13,8.13,0,0,1-5.93.56c-2.53-.84-3.6-2.7-4.47-4.19a6.21,6.21,0,0,0-2.25-2.64c-2.8-1.57-7.46.33-10.87,2.2l-1.88-3.42c6.31-3.46,11.1-4.17,14.65-2.19a9.83,9.83,0,0,1,3.73,4.09c.79,1.36,1.25,2.09,2.32,2.44s1.85.08,3.29-.48a9.13,9.13,0,0,1,6.42-.63,8.52,8.52,0,0,1,4.15,2.8,3.64,3.64,0,0,0,1.86,1.36c1.92.5,4.69-1,8-4.28l2.75,2.78C195.16,223.35,191.88,225.17,188.91,225.17Z"/><path d="M125.12,249a17.72,17.72,0,0,0,10.44-9c3.45-6.59,1.95-13.14.86-16.26a24,24,0,0,0,6.19-11.12,23.56,23.56,0,0,0,0-10.76l-.07-.23c-.33-.91-3.52-8.93-12.12-11.09a17.33,17.33,0,0,0-11.29,1.06,17.53,17.53,0,0,0-6.46-6.54c-6.63-3.79-17.09-3.32-23.12,4a18.16,18.16,0,0,0-1.79,20.14c-5.6,6.61-7.17,15.52-3.85,22.6s10,9.65,11.92,10.3a20.76,20.76,0,0,0,12.08.25,13.41,13.41,0,0,0,4.48,5.19,13.22,13.22,0,0,0,7.56,2.26A17.72,17.72,0,0,0,125.12,249Zm-16.8-10.87a17,17,0,0,1-11.26.27c-1.14-.37-6.94-2.53-9.61-8.24-2.83-6-1.17-13.82,4.13-19.36l1.06-1.11-.83-1.29a14.5,14.5,0,0,1,.76-16.85h0c4.72-5.76,12.94-6.12,18.16-3.13A14.15,14.15,0,0,1,116.5,195l.89,2,1.89-1.13a13.76,13.76,0,0,1,10.19-1.57c6.4,1.6,8.94,7.45,9.37,8.54a19.73,19.73,0,0,1,0,8.85,20.06,20.06,0,0,1-6,10.07l-1,.94.56,1.28c.54,1.26,3.08,7.84-.24,14.17a13.7,13.7,0,0,1-8.1,7.12c-4.6,1.38-7.66.25-9.41-.95a10,10,0,0,1-3.74-5l-.66-1.89Z"/><path d="M110.85,240.81l-3.69-1.28a175.54,175.54,0,0,0,6.31-23.17,177.29,177.29,0,0,0,3.06-23.27l3.9.25a179.55,179.55,0,0,1-3.13,23.78A179.48,179.48,0,0,1,110.85,240.81Z"/><path d="M133,224.53a106.22,106.22,0,0,0-43.76-13.12l.29-3.9a110.66,110.66,0,0,1,45.37,13.6Z"/><path d="M116,214c-.59-.88,1.62-4.73,4.49-4.49,1.14.09,2.59.84,2.59,1.7C123.07,212.93,116.74,215.06,116,214Z"/><path d="M7.52,196.15c2.81-2.44,4.41-7,2.78-13.7,6.21,4.84,10.65,3.48,12.22,2.71a8.21,8.21,0,0,0,3.74-10.22c-1.26-3.57-4.74-6.81-11-7.75,5.51-3.72,5.53-7.89,5.3-9.48-.64-4.27-4.88-7.47-9.45-7.14-1.75.13-6.22,1.08-8.82,7.15-2.6-6.07-7.07-7-8.82-7.15-4.57-.33-8.81,2.87-9.45,7.14-.23,1.59-.21,5.76,5.3,9.48-6.25.94-9.74,4.18-11,7.75a8.21,8.21,0,0,0,3.74,10.22c1.57.77,6,2.13,12.22-2.71-1.63,6.66,0,11.26,2.78,13.7a8,8,0,0,0,5.23,2A8,8,0,0,0,7.52,196.15ZM5,193.2a4,4,0,0,1-5.34,0c-2.8-2.43-3.64-8.94,2.67-19.49C8.6,184.26,7.76,190.77,5,193.2Zm-5.9-21.83c-6.78,9.75-12.41,11.7-15.27,10.29A4.32,4.32,0,0,1-18,176.24c1-2.8,4.49-5.42,11.24-5.42A33.66,33.66,0,0,1-.94,171.37Zm23.52,4.87a4.32,4.32,0,0,1-1.79,5.42c-2.86,1.41-8.49-.54-15.27-10.29C16.13,169.49,21.34,172.72,22.58,176.24ZM-6.81,154.47c3.25.24,6.72,3.84,7.11,13.1-9.76-2.53-12.83-6.52-12.42-9.29a4.93,4.93,0,0,1,4.93-3.83Zm23.51,3.81c.41,2.77-2.66,6.76-12.42,9.29.39-9.26,3.86-12.86,7.11-13.1l.38,0A4.93,4.93,0,0,1,16.7,158.28Z"/><path d="M84.82,177l-.83,2.5a11.83,11.83,0,0,1-4.29,6.16,8.49,8.49,0,0,1-3.91,1.51,3.64,3.64,0,0,0-1.84.67c-.91.68-1.16,1.45-1.56,2.87a10.43,10.43,0,0,1-3.13,5.53c-.45.4-1.12.76-5.08,2.77-5.94,3-7,3.42-8,3.65a10.4,10.4,0,0,1-3.11.33,25.61,25.61,0,0,0-3.7.19,33.52,33.52,0,0,0-4.16.71,18.72,18.72,0,0,1-2.29.41c-.37,0-.77.06-1.22.07a19.59,19.59,0,0,1-8.77-2l-2-.91,1.11-1.86a50.8,50.8,0,0,0,7-20.81,50.56,50.56,0,0,0-.54-14.52l-.1-.57.23-.53a9.13,9.13,0,0,1,4.5-4.69,9.27,9.27,0,0,1,7.28-.12l.6.25.32.55c.29.48.59.95.89,1.41v0a36,36,0,0,0,8.46,9,37.84,37.84,0,0,0,21.42,7.3ZM42.54,164.2a.78.78,0,0,1,0,.16,3.78,3.78,0,0,0,4.07.49,3.45,3.45,0,0,0,1.83-3l0,0a5.22,5.22,0,0,0-3.57.24A5.1,5.1,0,0,0,42.54,164.2Zm36.62,16.43a40.7,40.7,0,0,1-20.74-7.91,39.66,39.66,0,0,1-7.19-7,7.09,7.09,0,0,1-2.86,2.62,7.54,7.54,0,0,1-2.59.75,7.62,7.62,0,0,1-2.65-.19A54.42,54.42,0,0,1,43,179.2a54.34,54.34,0,0,1-6.42,20.42,14.91,14.91,0,0,0,5.06.81,12.57,12.57,0,0,0,2.74-.39,36.56,36.56,0,0,1,4.58-.78,29,29,0,0,1,4.19-.21,6.62,6.62,0,0,0,2.13-.22c.45-.11,1.14-.28,7.13-3.33,2.07-1.06,3.87-2,4.29-2.25a6.78,6.78,0,0,0,1.93-3.64,8.28,8.28,0,0,1,3-4.94,7.36,7.36,0,0,1,3.55-1.39,4.57,4.57,0,0,0,2.28-.84A6.93,6.93,0,0,0,79.16,180.63Z"/><path d="M21.91,225.17a7.38,7.38,0,0,1-1.76-.22,7.38,7.38,0,0,1-3.75-2.5,4.92,4.92,0,0,0-2.4-1.71,5.54,5.54,0,0,0-3.9.52,8.13,8.13,0,0,1-5.93.56c-2.53-.84-3.6-2.7-4.47-4.19A6.21,6.21,0,0,0-2.55,215c-2.8-1.57-7.46.33-10.87,2.2l-1.88-3.42C-9,210.31-4.2,209.6-.65,211.58a9.83,9.83,0,0,1,3.73,4.09c.79,1.36,1.25,2.09,2.32,2.44s1.85.08,3.29-.48a9.13,9.13,0,0,1,6.42-.63,8.52,8.52,0,0,1,4.15,2.8,3.64,3.64,0,0,0,1.86,1.36c1.92.5,4.69-1,8-4.28l2.75,2.78C28.16,223.35,24.88,225.17,21.91,225.17Z"/><path d="M208.62,142a17.77,17.77,0,0,0,10.44-9c3.45-6.58,1.95-13.14.86-16.26a24,24,0,0,0,6.19-11.12,23.56,23.56,0,0,0,0-10.76l-.07-.23c-.33-.91-3.52-8.93-12.12-11.09a17.4,17.4,0,0,0-11.29,1.06A17.53,17.53,0,0,0,196.17,78c-6.63-3.79-17.09-3.32-23.12,4a18.16,18.16,0,0,0-1.79,20.14c-5.6,6.61-7.17,15.52-3.85,22.6s10,9.65,11.92,10.3a20.77,20.77,0,0,0,12.08.26,13.46,13.46,0,0,0,4.48,5.18,13.22,13.22,0,0,0,7.56,2.26A18,18,0,0,0,208.62,142Zm-16.8-10.88a17,17,0,0,1-11.26.27c-1.14-.37-6.94-2.53-9.61-8.24-2.83-6-1.17-13.82,4.13-19.36l1.06-1.11-.83-1.29a14.5,14.5,0,0,1,.76-16.85h0c4.72-5.76,12.94-6.12,18.16-3.13A14.2,14.2,0,0,1,200,88l.89,2,1.89-1.12A13.71,13.71,0,0,1,213,87.25c6.4,1.6,8.94,7.46,9.37,8.54a19.73,19.73,0,0,1,0,8.85,20.06,20.06,0,0,1-6,10.07l-1,.94.56,1.28c.54,1.26,3.08,7.85-.24,14.17a13.7,13.7,0,0,1-8.1,7.12c-4.6,1.38-7.66.25-9.41-.94a10,10,0,0,1-3.74-5l-.66-1.88Z"/><path d="M91,89.09c2.81-2.44,4.41-7,2.78-13.69,6.21,4.83,10.65,3.47,12.22,2.7a8.21,8.21,0,0,0,3.74-10.22c-1.26-3.57-4.74-6.81-11-7.75,5.51-3.72,5.53-7.89,5.3-9.48-.64-4.27-4.88-7.47-9.45-7.14-1.75.13-6.22,1.08-8.82,7.15-2.6-6.07-7.07-7-8.82-7.15-4.57-.33-8.81,2.87-9.45,7.14-.23,1.59-.21,5.76,5.3,9.48-6.25.94-9.74,4.18-11,7.75A8.21,8.21,0,0,0,65.56,78.1c1.57.77,6,2.13,12.22-2.7-1.63,6.65,0,11.25,2.78,13.69a7.9,7.9,0,0,0,10.46,0Zm-2.56-2.94a4,4,0,0,1-5.34,0c-2.8-2.44-3.64-9,2.67-19.5C92.1,77.2,91.26,83.71,88.46,86.15Zm-5.9-21.84C75.78,74.06,70.15,76,67.29,74.6a4.32,4.32,0,0,1-1.79-5.42c1-2.8,4.49-5.42,11.24-5.42A33.66,33.66,0,0,1,82.56,64.31Zm23.52,4.87a4.32,4.32,0,0,1-1.79,5.42C101.43,76,95.8,74.06,89,64.31,99.63,62.44,104.84,65.66,106.08,69.18ZM76.69,47.41c3.25.24,6.72,3.84,7.11,13.1C74,58,71,54,71.38,51.22a4.93,4.93,0,0,1,4.93-3.83Zm23.51,3.81c.41,2.77-2.66,6.76-12.42,9.29.39-9.26,3.86-12.86,7.11-13.1l.38,0A4.93,4.93,0,0,1,100.2,51.22Z"/><path d="M168.32,69.9l-.83,2.5a11.79,11.79,0,0,1-4.29,6.16,8.42,8.42,0,0,1-3.91,1.52,3.54,3.54,0,0,0-1.84.66c-.91.68-1.16,1.45-1.56,2.87a10.43,10.43,0,0,1-3.13,5.53c-.45.4-1.12.76-5.08,2.78-5.94,3-7,3.41-8,3.64a10.4,10.4,0,0,1-3.11.33,25.61,25.61,0,0,0-3.7.19,33.52,33.52,0,0,0-4.16.71,18.72,18.72,0,0,1-2.29.41c-.37,0-.77.06-1.22.07a19.59,19.59,0,0,1-8.77-2l-2-.91,1.11-1.86a50.63,50.63,0,0,0,6.48-35.32l-.1-.57.23-.54a9.17,9.17,0,0,1,4.5-4.69,9.27,9.27,0,0,1,7.28-.12l.6.25.32.55c.29.48.59.95.89,1.41v0a36,36,0,0,0,8.46,9,37.76,37.76,0,0,0,21.42,7.3ZM126,57.14a.78.78,0,0,1,0,.16,3.78,3.78,0,0,0,4.07.49,3.44,3.44,0,0,0,1.83-3l0,0a5.18,5.18,0,0,0-3.57.25A5,5,0,0,0,126,57.14Zm36.62,16.43a40.7,40.7,0,0,1-20.74-7.91,39.66,39.66,0,0,1-7.19-7,7.09,7.09,0,0,1-2.86,2.62,7.54,7.54,0,0,1-2.59.75,7.62,7.62,0,0,1-2.65-.19,54.54,54.54,0,0,1-6.55,30.71,14.91,14.91,0,0,0,5.06.81,12,12,0,0,0,2.74-.39,38.55,38.55,0,0,1,4.58-.78,29,29,0,0,1,4.19-.21,6.62,6.62,0,0,0,2.13-.22c.45-.11,1.14-.28,7.13-3.33,2.07-1.06,3.87-2,4.29-2.25a6.78,6.78,0,0,0,1.93-3.64,8.28,8.28,0,0,1,3-4.94,7.36,7.36,0,0,1,3.55-1.39,4.57,4.57,0,0,0,2.28-.84A6.77,6.77,0,0,0,162.66,73.57Z"/><path d="M105.41,118.11a6.87,6.87,0,0,1-5.51-2.72,4.92,4.92,0,0,0-2.4-1.71,5.54,5.54,0,0,0-3.9.52,8.13,8.13,0,0,1-5.93.56c-2.53-.84-3.6-2.7-4.47-4.19A6.26,6.26,0,0,0,81,107.93c-2.8-1.57-7.46.33-10.87,2.2l-1.88-3.42c6.31-3.46,11.1-4.17,14.65-2.19a9.83,9.83,0,0,1,3.73,4.09c.79,1.36,1.25,2.09,2.32,2.44s1.85.08,3.29-.48a9.13,9.13,0,0,1,6.42-.63,8.59,8.59,0,0,1,4.15,2.8,3.64,3.64,0,0,0,1.86,1.36c1.92.5,4.69-1,8-4.27l2.75,2.77C111.66,116.29,108.38,118.11,105.41,118.11Z"/><path d="M102.89,126.32a6.88,6.88,0,0,1-1.75-.22,7.37,7.37,0,0,1-3.75-2.49A5,5,0,0,0,95,121.9a5.54,5.54,0,0,0-3.9.52,8.15,8.15,0,0,1-5.94.55c-2.52-.84-3.59-2.69-4.46-4.18a6.15,6.15,0,0,0-2.25-2.64c-2.81-1.57-7.46.33-10.87,2.2l-1.88-3.43c6.31-3.45,11.1-4.17,14.65-2.18a9.83,9.83,0,0,1,3.73,4.09c.79,1.36,1.25,2.08,2.32,2.44s1.85.07,3.28-.49a9.15,9.15,0,0,1,6.42-.63,8.64,8.64,0,0,1,4.16,2.8,3.69,3.69,0,0,0,1.86,1.37c1.92.49,4.69-1,8-4.28l2.75,2.77C109.15,124.51,105.87,126.32,102.89,126.32Z"/><path d="M100.9,134.9a6.87,6.87,0,0,1-5.51-2.72,4.92,4.92,0,0,0-2.4-1.71,5.51,5.51,0,0,0-3.89.52,8.15,8.15,0,0,1-5.94.56,8,8,0,0,1-4.46-4.19,6.3,6.3,0,0,0-2.26-2.64c-2.8-1.57-7.45.33-10.87,2.2L63.7,123.5c6.3-3.46,11.1-4.17,14.65-2.19a9.9,9.9,0,0,1,3.73,4.09c.78,1.36,1.24,2.09,2.31,2.44s1.85.08,3.29-.48a9.14,9.14,0,0,1,6.42-.63,8.51,8.51,0,0,1,4.16,2.8,3.58,3.58,0,0,0,1.85,1.36c1.93.5,4.7-1,8-4.27l2.75,2.77C107.15,133.08,103.87,134.9,100.9,134.9Z"/><path d="M41.62,142a17.77,17.77,0,0,0,10.44-9c3.45-6.58,1.95-13.14.86-16.26a24,24,0,0,0,6.19-11.12,23.56,23.56,0,0,0,0-10.76L59,94.55c-.33-.91-3.52-8.93-12.12-11.09a17.4,17.4,0,0,0-11.29,1.06A17.53,17.53,0,0,0,29.17,78c-6.63-3.79-17.09-3.32-23.12,4a18.16,18.16,0,0,0-1.79,20.14c-5.6,6.61-7.17,15.52-3.85,22.6s10,9.65,11.92,10.3a20.77,20.77,0,0,0,12.08.26,13.46,13.46,0,0,0,4.48,5.18,13.22,13.22,0,0,0,7.56,2.26A18,18,0,0,0,41.62,142Zm-16.8-10.88a17,17,0,0,1-11.26.27c-1.14-.37-6.94-2.53-9.61-8.24-2.83-6-1.17-13.82,4.13-19.36l1.06-1.11-.83-1.29A14.5,14.5,0,0,1,9.07,84.5h0c4.72-5.76,12.94-6.12,18.16-3.13A14.2,14.2,0,0,1,33,88l.89,2,1.89-1.12A13.71,13.71,0,0,1,46,87.25c6.4,1.6,8.94,7.46,9.37,8.54a19.73,19.73,0,0,1,0,8.85,20.06,20.06,0,0,1-6,10.07l-1,.94.56,1.28c.54,1.26,3.08,7.85-.24,14.17a13.7,13.7,0,0,1-8.1,7.12c-4.6,1.38-7.66.25-9.41-.94a10,10,0,0,1-3.74-5l-.66-1.88Z"/><path d="M27.35,133.75l-3.69-1.28A175.54,175.54,0,0,0,30,109.3,177.06,177.06,0,0,0,33,86l3.9.25a179.55,179.55,0,0,1-3.13,23.78A179.48,179.48,0,0,1,27.35,133.75Z"/><path d="M49.48,117.47a107.29,107.29,0,0,0-18.89-8.23,107.33,107.33,0,0,0-24.87-4.89L6,100.46a110.77,110.77,0,0,1,25.78,5.07,110.49,110.49,0,0,1,19.59,8.52Z"/><path d="M32.48,106.89c-.59-.88,1.62-4.72,4.49-4.49,1.14.1,2.59.84,2.59,1.7C39.57,105.87,33.24,108,32.48,106.89Z"/><path d="M31.89,108.58c.4.82-1.61,3.61-4.29,3.49-1.47-.06-3.16-1-3.09-1.79C24.64,108.74,31.29,107.38,31.89,108.58Z"/><path d="M90.72,168.14a13,13,0,1,1,13-13A13,13,0,0,1,90.72,168.14Zm0-22.13a9.11,9.11,0,1,0,9.11,9.11A9.12,9.12,0,0,0,90.72,146Z"/><path d="M135.2,132.41a8.45,8.45,0,1,1,8.45-8.45A8.46,8.46,0,0,1,135.2,132.41Zm0-13a4.55,4.55,0,1,0,4.55,4.54A4.54,4.54,0,0,0,135.2,119.42Z"/><path d="M127.68,170.61a14.26,14.26,0,1,1,14.26-14.25A14.26,14.26,0,0,1,127.68,170.61Zm0-24.6A10.35,10.35,0,1,0,138,156.36,10.36,10.36,0,0,0,127.68,146Z"/><path d="M1.32,69.9.49,72.4A11.79,11.79,0,0,1-3.8,78.56a8.42,8.42,0,0,1-3.91,1.52,3.54,3.54,0,0,0-1.84.66c-.91.68-1.16,1.45-1.56,2.87a10.43,10.43,0,0,1-3.13,5.53c-.45.4-1.12.76-5.08,2.78-5.94,3-7,3.41-8,3.64a10.4,10.4,0,0,1-3.11.33,25.61,25.61,0,0,0-3.7.19,33.52,33.52,0,0,0-4.16.71,18.72,18.72,0,0,1-2.29.41c-.37,0-.77.06-1.22.07a19.59,19.59,0,0,1-8.77-2l-2-.91,1.11-1.86a50.8,50.8,0,0,0,7-20.81,50.48,50.48,0,0,0-.54-14.51l-.1-.57.23-.54a9.17,9.17,0,0,1,4.5-4.69A9.27,9.27,0,0,1-33,51.29l.6.25.32.55c.29.48.59.95.89,1.41v0a36,36,0,0,0,8.46,9,37.76,37.76,0,0,0,21.42,7.3ZM-41,57.14a.78.78,0,0,1,0,.16,3.78,3.78,0,0,0,4.07.49,3.44,3.44,0,0,0,1.83-3l0,0a5.18,5.18,0,0,0-3.57.25A5,5,0,0,0-41,57.14ZM-4.34,73.57a40.7,40.7,0,0,1-20.74-7.91,39.66,39.66,0,0,1-7.19-7,7.09,7.09,0,0,1-2.86,2.62,7.54,7.54,0,0,1-2.59.75,7.62,7.62,0,0,1-2.65-.19,54.42,54.42,0,0,1-.13,10.29,54.34,54.34,0,0,1-6.42,20.42,14.91,14.91,0,0,0,5.06.81A12,12,0,0,0-39.12,93a38.55,38.55,0,0,1,4.58-.78A29,29,0,0,1-30.35,92a6.62,6.62,0,0,0,2.13-.22c.45-.11,1.14-.28,7.13-3.33,2.07-1.06,3.87-2,4.29-2.25a6.78,6.78,0,0,0,1.93-3.64,8.28,8.28,0,0,1,3-4.94,7.36,7.36,0,0,1,3.55-1.39,4.57,4.57,0,0,0,2.28-.84A6.77,6.77,0,0,0-4.34,73.57Z"/><path d="M188.91,11.05a6.9,6.9,0,0,1-1.76-.22,7.32,7.32,0,0,1-3.75-2.5A5,5,0,0,0,181,6.62a5.49,5.49,0,0,0-3.9.53,8.18,8.18,0,0,1-5.93.55c-2.53-.84-3.6-2.7-4.47-4.19A6.26,6.26,0,0,0,164.45.87c-2.8-1.56-7.46.33-10.87,2.2L151.7-.35c6.31-3.46,11.1-4.17,14.65-2.19a9.79,9.79,0,0,1,3.73,4.1c.79,1.35,1.25,2.08,2.32,2.43s1.85.08,3.29-.48a9.13,9.13,0,0,1,6.42-.63,8.66,8.66,0,0,1,4.15,2.8,3.73,3.73,0,0,0,1.86,1.37c1.92.49,4.69-1,8-4.28l2.75,2.77C195.16,9.23,191.88,11.05,188.91,11.05Z"/><path d="M186.39,19.26a6.88,6.88,0,0,1-1.75-.22,7.37,7.37,0,0,1-3.75-2.49,5,5,0,0,0-2.4-1.71,5.54,5.54,0,0,0-3.9.52,8.1,8.1,0,0,1-5.94.55c-2.52-.83-3.59-2.69-4.46-4.18a6.15,6.15,0,0,0-2.25-2.64c-2.81-1.57-7.46.33-10.87,2.2l-1.88-3.43c6.31-3.45,11.1-4.17,14.65-2.18a9.83,9.83,0,0,1,3.73,4.09c.79,1.36,1.25,2.08,2.32,2.44s1.85.07,3.28-.49a9.2,9.2,0,0,1,6.42-.63,8.64,8.64,0,0,1,4.16,2.8,3.69,3.69,0,0,0,1.86,1.37c1.92.49,4.69-1,8-4.28l2.75,2.77C192.65,17.45,189.37,19.26,186.39,19.26Z"/><path d="M184.4,27.84a7.44,7.44,0,0,1-1.76-.22,7.36,7.36,0,0,1-3.75-2.5,4.92,4.92,0,0,0-2.4-1.71,5.51,5.51,0,0,0-3.89.52,8.15,8.15,0,0,1-5.94.56,8,8,0,0,1-4.46-4.19,6.36,6.36,0,0,0-2.26-2.64c-2.8-1.57-7.45.33-10.87,2.2l-1.87-3.42c6.3-3.46,11.1-4.17,14.65-2.19a9.9,9.9,0,0,1,3.73,4.09c.78,1.36,1.24,2.09,2.31,2.44s1.85.08,3.29-.48a9.14,9.14,0,0,1,6.42-.63,8.57,8.57,0,0,1,4.16,2.8,3.67,3.67,0,0,0,1.85,1.37c1.93.49,4.7-1,8-4.28l2.75,2.77C190.65,26,187.37,27.84,184.4,27.84Z"/><path d="M125.12,34.9a17.77,17.77,0,0,0,10.44-9c3.45-6.58,1.95-13.14.86-16.26a24,24,0,0,0,6.19-11.12,23.56,23.56,0,0,0,0-10.76l-.07-.23c-.33-.91-3.52-8.93-12.12-11.09a17.4,17.4,0,0,0-11.29,1.06,17.53,17.53,0,0,0-6.46-6.54C106-32.87,95.58-32.4,89.55-25A18.15,18.15,0,0,0,87.76-4.9c-5.6,6.61-7.17,15.52-3.85,22.61s10,9.64,11.92,10.29a20.77,20.77,0,0,0,12.08.26,13.39,13.39,0,0,0,4.48,5.18A13.22,13.22,0,0,0,120,35.71,18.06,18.06,0,0,0,125.12,34.9ZM108.32,24a17,17,0,0,1-11.26.27c-1.14-.37-6.94-2.53-9.61-8.24-2.83-6-1.17-13.82,4.13-19.36l1.06-1.11-.83-1.29a14.5,14.5,0,0,1,.76-16.85h0c4.72-5.76,12.94-6.12,18.16-3.13a14.2,14.2,0,0,1,5.77,6.58l.89,2,1.89-1.12a13.71,13.71,0,0,1,10.19-1.58c6.4,1.61,8.94,7.46,9.37,8.54a19.73,19.73,0,0,1,0,8.85,20.15,20.15,0,0,1-6,10.08l-1,.93.56,1.28c.54,1.26,3.08,7.85-.24,14.18a13.72,13.72,0,0,1-8.1,7.11c-4.6,1.38-7.66.25-9.41-.94a10,10,0,0,1-3.74-5l-.66-1.89Z"/><path d="M110.85,26.69l-3.69-1.28a175.54,175.54,0,0,0,6.31-23.17A176.84,176.84,0,0,0,116.53-21l3.9.25A179.55,179.55,0,0,1,117.3,3,179.48,179.48,0,0,1,110.85,26.69Z"/><path d="M133,10.41A106.22,106.22,0,0,0,89.22-2.71l.29-3.89A110.25,110.25,0,0,1,134.88,7Z"/><path d="M116-.17c-.59-.88,1.62-4.72,4.49-4.49,1.14.1,2.59.85,2.59,1.7C123.07-1.18,116.74.94,116-.17Z"/><path d="M115.39,1.52c.4.82-1.61,3.61-4.29,3.49C109.63,5,107.94,4,108,3.22,108.14,1.68,114.79.32,115.39,1.52Z"/><path d="M174.22,61.08a13,13,0,1,1,13-13A13,13,0,0,1,174.22,61.08Zm0-22.13a9.11,9.11,0,1,0,9.11,9.11A9.12,9.12,0,0,0,174.22,39Z"/><path d="M21.91,11.05a6.9,6.9,0,0,1-1.76-.22,7.32,7.32,0,0,1-3.75-2.5A5,5,0,0,0,14,6.62a5.49,5.49,0,0,0-3.9.53,8.18,8.18,0,0,1-5.93.55C1.64,6.86.57,5-.3,3.51A6.26,6.26,0,0,0-2.55.87C-5.35-.69-10,1.2-13.42,3.07L-15.3-.35C-9-3.81-4.2-4.52-.65-2.54a9.79,9.79,0,0,1,3.73,4.1C3.87,2.91,4.33,3.64,5.4,4s1.85.08,3.29-.48a9.13,9.13,0,0,1,6.42-.63,8.66,8.66,0,0,1,4.15,2.8,3.73,3.73,0,0,0,1.86,1.37c1.92.49,4.69-1,8-4.28l2.75,2.77C28.16,9.23,24.88,11.05,21.91,11.05Z"/><path d="M19.39,19.26A6.88,6.88,0,0,1,17.64,19a7.37,7.37,0,0,1-3.75-2.49,5,5,0,0,0-2.4-1.71,5.54,5.54,0,0,0-3.9.52,8.1,8.1,0,0,1-5.94.55c-2.52-.83-3.59-2.69-4.46-4.18A6.15,6.15,0,0,0-5.06,9.09c-2.81-1.57-7.46.33-10.87,2.2l-1.88-3.43C-11.5,4.41-6.71,3.69-3.16,5.68A9.83,9.83,0,0,1,.57,9.77c.79,1.36,1.25,2.08,2.32,2.44s1.85.07,3.28-.49a9.2,9.2,0,0,1,6.42-.63,8.64,8.64,0,0,1,4.16,2.8,3.69,3.69,0,0,0,1.86,1.37c1.92.49,4.69-1,8-4.28l2.75,2.77C25.65,17.45,22.37,19.26,19.39,19.26Z"/><path d="M17.4,27.84a7.44,7.44,0,0,1-1.76-.22,7.36,7.36,0,0,1-3.75-2.5,4.92,4.92,0,0,0-2.4-1.71,5.51,5.51,0,0,0-3.89.52,8.15,8.15,0,0,1-5.94.56A8,8,0,0,1-4.8,20.3a6.36,6.36,0,0,0-2.26-2.64c-2.8-1.57-7.45.33-10.87,2.2l-1.87-3.42C-13.5,13-8.7,12.27-5.15,14.25a9.9,9.9,0,0,1,3.73,4.09C-.64,19.7-.18,20.43.89,20.78s1.85.08,3.29-.48a9.14,9.14,0,0,1,6.42-.63,8.57,8.57,0,0,1,4.16,2.8,3.67,3.67,0,0,0,1.85,1.37c1.93.49,4.7-1,8-4.28l2.75,2.77C23.65,26,20.37,27.84,17.4,27.84Z"/><path d="M7.22,61.08a13,13,0,1,1,13-13A13,13,0,0,1,7.22,61.08ZM7.22,39a9.11,9.11,0,1,0,9.11,9.11A9.12,9.12,0,0,0,7.22,39Z"/><path d="M51.7,25.35a8.45,8.45,0,1,1,8.45-8.44A8.46,8.46,0,0,1,51.7,25.35Zm0-13a4.55,4.55,0,1,0,4.55,4.55A4.55,4.55,0,0,0,51.7,12.36Z"/><path d="M44.18,63.55A14.26,14.26,0,1,1,58.44,49.3,14.26,14.26,0,0,1,44.18,63.55Zm0-24.6A10.35,10.35,0,1,0,54.53,49.3,10.36,10.36,0,0,0,44.18,39Z"/></pattern></defs><rect class="cls-2" x="0.5" y="0.5" width="1079" height="1079"/></svg>